<?xml version="1.0" encoding="UTF-8" standalone="no"?>
<!-- Created with Inkscape (http://www.inkscape.org/) -->

<svg
   width="159.36784mm"
   height="86.987305mm"
   viewBox="0 0 159.36784 86.987305"
   version="1.1"
   id="svg1"
   inkscape:version="1.3.2 (091e20e, 2023-11-25)"
   sodipodi:docname="foomtbal.svg"
   xmlns:inkscape="http://www.inkscape.org/namespaces/inkscape"
   xmlns:sodipodi="http://sodipodi.sourceforge.net/DTD/sodipodi-0.dtd"
   xmlns="http://www.w3.org/2000/svg"
   xmlns:svg="http://www.w3.org/2000/svg">
  <sodipodi:namedview
     id="namedview1"
     pagecolor="#ffffff"
     bordercolor="#000000"
     borderopacity="0.25"
     inkscape:showpageshadow="2"
     inkscape:pageopacity="0.0"
     inkscape:pagecheckerboard="0"
     inkscape:deskcolor="#d1d1d1"
     inkscape:document-units="mm"
     inkscape:zoom="0.81188433"
     inkscape:cx="311.62075"
     inkscape:cy="135.48728"
     inkscape:window-width="1280"
     inkscape:window-height="747"
     inkscape:window-x="0"
     inkscape:window-y="25"
     inkscape:window-maximized="1"
     inkscape:current-layer="layer1" />
  <defs
     id="defs1">
    <inkscape:path-effect
       effect="perspective-envelope"
       up_left_point="68.496811,120.34611"
       up_right_point="141.50318,120.34611"
       down_left_point="56.008354,181.87358"
       down_right_point="153.99164,181.87358"
       id="path-effect8"
       is_visible="true"
       lpeversion="1"
       deform_type="perspective"
       horizontal_mirror="false"
       vertical_mirror="true"
       overflow_perspective="false" />
    <inkscape:path-effect
       effect="perspective-envelope"
       up_left_point="43.198911,120.97137"
       up_right_point="166.80109,120.97137"
       down_left_point="43.198911,178.92183"
       down_right_point="166.80109,178.92183"
       id="path-effect7"
       is_visible="true"
       lpeversion="1"
       deform_type="envelope_deformation"
       horizontal_mirror="true"
       vertical_mirror="false"
       overflow_perspective="false" />
    <inkscape:path-effect
       effect="perspective-envelope"
       up_left_point="44.499728,120.97137"
       up_right_point="166.80109,120.97137"
       down_left_point="44.499728,178.92183"
       down_right_point="166.80109,178.92183"
       id="path-effect6"
       is_visible="true"
       lpeversion="1"
       deform_type="perspective"
       horizontal_mirror="true"
       vertical_mirror="false"
       overflow_perspective="false" />
    <inkscape:path-effect
       effect="perspective-envelope"
       up_left_point="166.80109,120.97137"
       up_right_point="166.80109,120.97137"
       down_left_point="43.198911,178.92183"
       down_right_point="166.80109,178.92183"
       id="path-effect5"
       is_visible="true"
       lpeversion="1"
       deform_type="perspective"
       horizontal_mirror="false"
       vertical_mirror="false"
       overflow_perspective="false" />
  </defs>
  <g
     inkscape:label="Layer 1"
     inkscape:groupmode="layer"
     id="layer1"
     transform="translate(-25.316078,-105.00635)">
    <ellipse
       style="fill:#ffffff;fill-opacity:1;stroke-width:4.01433;stroke-linecap:round;stroke-linejoin:round"
       id="path1-3"
       cx="-105"
       cy="-148.5"
       rx="79.683922"
       ry="43.493652"
       transform="scale(-1)" />
    <ellipse
       style="fill:#0c3f91;fill-opacity:1;stroke-width:3.89369;stroke-linecap:round;stroke-linejoin:round"
       id="path1"
       cx="-105"
       cy="-148.5"
       rx="77.636444"
       ry="41.997963"
       transform="scale(-1)" />
    <ellipse
       style="fill:#ffffff;fill-opacity:1;stroke-width:3.4284;stroke-linecap:round;stroke-linejoin:round"
       id="path1-5-7"
       cx="105"
       cy="148.5"
       rx="65.69545"
       ry="38.478409" />
    <ellipse
       style="fill:#0c3f91;fill-opacity:1;stroke-width:3.23712;stroke-linecap:round;stroke-linejoin:round"
       id="path1-5"
       cx="-105"
       cy="-148.5"
       rx="61.876259"
       ry="36.421921"
       transform="scale(-1)" />
    <ellipse
       style="fill:#f0001b;fill-opacity:1;stroke-width:3.14091;stroke-linecap:round;stroke-linejoin:round"
       id="path1-5-1"
       cx="-105"
       cy="-148.5"
       rx="60.701122"
       ry="34.953003"
       transform="scale(-1)" />
    <g
       id="g4"
       transform="matrix(1.0028275,0,0,0.83054501,-0.57936886,24.245086)"
       style="stroke:#0c3f91;stroke-width:4;stroke-dasharray:none;stroke-opacity:1;paint-order:stroke markers fill">
      <g
         id="g5"
         inkscape:path-effect="#path-effect8"
         transform="matrix(1.3966882,0,0,1.106543,-45.216168,-17.548417)"
         style="stroke-width:3.11838;stroke-dasharray:none">
        <path
           d="m 55.817039,165.29943 4.226469,-27.3458 h 11.931918 l -0.461584,4.77731 h -8.200659 l -0.719455,5.30821 7.16372,0 -0.534682,5.22271 h -7.336904 l -1.631529,12.03757 z m 22.615928,0.53377 c -1.345938,0 -2.55146,-0.3413 -3.611915,-1.02093 -1.054301,-0.67567 -1.912127,-1.66734 -2.572444,-2.96689 -0.650414,-1.31342 -1.095959,-2.90624 -1.339166,-4.76653 -0.236681,-1.85712 -0.239537,-3.96326 -0.01511,-6.30354 0.21973,-2.29126 0.605395,-4.26023 1.153976,-5.92315 0.542354,-1.66159 1.209247,-3.02256 2.000895,-4.09403 0.785529,-1.08404 1.688594,-1.88971 2.711328,-2.42335 1.017469,-0.5309 2.115782,-0.79533 3.298858,-0.79533 1.183077,0 2.250988,0.26443 3.207422,0.79533 0.961382,0.53364 1.771822,1.33931 2.432722,2.42335 0.668463,1.07147 1.178889,2.43244 1.530216,4.09403 0.357399,1.66292 0.516698,3.63189 0.473008,5.92315 -0.04463,2.34028 -0.289617,4.44642 -0.739806,6.30354 -0.45708,1.86029 -1.085748,3.45311 -1.887162,4.76653 -0.809722,1.29955 -1.781558,2.29122 -2.913539,2.96689 -1.13859,0.67963 -2.383351,1.02093 -3.729288,1.02093 z m 0.337292,-5.86763 c 1.312163,0 2.359523,-0.63383 3.135587,-1.89097 0.786283,-1.24331 1.220969,-3.00174 1.309171,-5.25096 l 0.159171,-4.05901 c 0.08331,-2.12441 -0.200368,-3.72761 -0.844758,-4.83201 -0.620156,-1.093 -1.533073,-1.63529 -2.743536,-1.63529 -1.210463,0 -2.194519,0.54229 -2.95806,1.63529 -0.753726,1.1044 -1.212831,2.7076 -1.373761,4.83201 l -0.307482,4.05901 c -0.170385,2.24922 0.05276,4.00765 0.677193,5.25096 0.65034,1.25714 1.634312,1.89097 2.946475,1.89097 z m 18.820798,5.86763 c -1.345936,0 -2.579422,-0.3413 -3.695561,-1.02093 -1.10966,-0.67567 -2.048735,-1.66734 -2.815527,-2.96689 -0.758025,-1.31342 -1.334073,-2.90624 -1.729699,-4.76653 -0.388838,-1.85712 -0.564253,-3.96326 -0.531566,-6.30354 0.032,-2.29126 0.256345,-4.26023 0.668679,-5.92315 0.406218,-1.66159 0.961604,-3.02256 1.665464,-4.09403 0.696711,-1.08404 1.533767,-1.88971 2.512777,-2.42335 0.973972,-0.5309 2.050619,-0.79533 3.233695,-0.79533 1.183076,0 2.272654,0.26443 3.272591,0.79533 1.0051,0.53364 1.88155,1.33931 2.63127,2.42335 0.75625,1.07147 1.37818,2.43244 1.86564,4.09403 0.49365,1.66292 0.81427,3.63189 0.95831,5.92315 0.14712,2.34028 0.0747,4.44642 -0.22335,6.30354 -0.30466,1.86029 -0.80282,3.45311 -1.49662,4.76653 -0.70325,1.29955 -1.59384,2.29122 -2.67046,2.96689 -1.08291,0.67963 -2.299706,1.02093 -3.645643,1.02093 z m -0.143454,-5.86763 c 1.312162,0 2.30759,-0.63383 2.980657,-1.89097 0.68441,-1.24331 0.97503,-3.00174 0.87895,-5.25096 l -0.17339,-4.05901 c -0.0907,-2.12441 -0.50578,-3.72761 -1.240662,-4.83201 -0.709707,-1.093 -1.667053,-1.63529 -2.877516,-1.63529 -1.210463,0 -2.150088,0.54229 -2.824076,1.63529 -0.663241,1.1044 -0.990993,2.7076 -0.977866,4.83201 l 0.02508,4.05901 c 0.0139,2.24922 0.381117,4.00765 1.107416,5.25096 0.753341,1.25714 1.789244,1.89097 3.101406,1.89097 z m 23.754257,-13.36291 h -0.0806 l -0.86291,3.89981 -2.58298,10.05788 -4.76804,-10.01895 -1.82582,-4.20128 h -0.0805 l 1.69188,18.95931 -4.17457,0 -1.95094,-27.3458 h 4.14911 l 5.75769,11.96647 h 0.0545 l 3.00142,-11.96647 h 4.17489 l 4.22647,27.3458 h -4.17456 z"
           id="text2"
           style="font-weight:bold;font-size:43.5432px;line-height:0.8;font-family:'IBM Plex Sans';-inkscape-font-specification:'IBM Plex Sans Bold';letter-spacing:-2.57933px;fill:#ffffff;stroke-width:3.11838;stroke-linecap:square;stroke-dasharray:none"
           transform="scale(1.1428658,0.87499338)"
           aria-label="FOOM"
           inkscape:original-d="m 38.092103,169.16971 v -30.39316 h 20.160503 v 5.87834 H 44.71067 v 6.22667 h 11.538948 v 5.83479 H 44.71067 v 12.45336 z m 33.779173,0.52252 q -3.004481,0 -5.486443,-1.0015 -2.481963,-1.00149 -4.223691,-2.96093 -1.741728,-2.00299 -2.699678,-4.92039 -0.957951,-2.96093 -0.957951,-6.83628 0,-3.87534 0.957951,-6.79274 0.95795,-2.96094 2.699678,-4.92038 1.741728,-2.00299 4.223691,-3.00448 2.481962,-1.00149 5.486443,-1.00149 3.004481,0 5.486443,1.00149 2.481963,1.00149 4.223691,3.00448 1.741728,1.95944 2.699678,4.92038 0.957951,2.9174 0.957951,6.79274 0,3.87535 -0.957951,6.83628 -0.95795,2.9174 -2.699678,4.92039 -1.741728,1.95944 -4.223691,2.96093 -2.481962,1.0015 -5.486443,1.0015 z m 0,-5.87834 q 3.004481,0 4.659123,-1.95944 1.698184,-1.95944 1.698184,-5.61707 v -4.5285 q 0,-3.65762 -1.698184,-5.61707 -1.654642,-1.95944 -4.659123,-1.95944 -3.004481,0 -4.702666,1.95944 -1.654641,1.95945 -1.654641,5.61707 v 4.5285 q 0,3.65763 1.654641,5.61707 1.698185,1.95944 4.702666,1.95944 z m 28.510544,5.87834 q -3.004479,0 -5.486442,-1.0015 -2.481962,-1.00149 -4.22369,-2.96093 -1.741728,-2.00299 -2.699679,-4.92039 -0.95795,-2.96093 -0.95795,-6.83628 0,-3.87534 0.95795,-6.79274 0.957951,-2.96094 2.699679,-4.92038 1.741728,-2.00299 4.22369,-3.00448 2.481963,-1.00149 5.486442,-1.00149 3.00448,0 5.48645,1.00149 2.48196,1.00149 4.22369,3.00448 1.74172,1.95944 2.69967,4.92038 0.95795,2.9174 0.95795,6.79274 0,3.87535 -0.95795,6.83628 -0.95795,2.9174 -2.69967,4.92039 -1.74173,1.95944 -4.22369,2.96093 -2.48197,1.0015 -5.48645,1.0015 z m 0,-5.87834 q 3.00448,0 4.65912,-1.95944 1.69819,-1.95944 1.69819,-5.61707 v -4.5285 q 0,-3.65762 -1.69819,-5.61707 -1.65464,-1.95944 -4.65912,-1.95944 -3.004479,0 -4.702664,1.95944 -1.654642,1.95945 -1.654642,5.61707 v 4.5285 q 0,3.65763 1.654642,5.61707 1.698185,1.95944 4.702664,1.95944 z m 39.048,-14.58697 h -0.13063 l -2.2207,4.44141 -5.92187,10.75517 -5.79125,-10.71163 -2.30779,-4.78975 h -0.13063 v 20.24759 h -6.22668 v -30.39316 h 7.01046 l 7.44589,14.23863 h 0.0871 l 7.3588,-14.23863 h 7.054 v 30.39316 h -6.22668 z" />
        <path
           d="m 61.859805,187.43007 -3.144204,32.86103 h -5.560609 l 3.769224,-32.86103 h -6.137015 l 0.942233,-6.81041 16.757952,0 -0.490566,6.81041 z m 8.042948,-6.81041 10.718765,0 c 1.833889,0 3.247782,0.80491 4.251238,2.4302 1.037825,1.64627 1.56041,3.86317 1.557632,6.67992 -0.0014,1.41371 -0.123912,2.62743 -0.368936,3.63539 -0.224671,1.01569 -0.539518,1.85583 -0.944748,2.51704 -0.384831,0.66449 -0.848694,1.16502 -1.391166,1.49975 -0.520834,0.29823 -1.085915,0.46627 -1.694504,0.50365 l -0.0058,0.33682 c 0.563691,0 1.147736,0.16872 1.753269,0.5068 0.629667,0.33892 1.202989,0.88676 1.720944,1.64603 0.520952,0.72526 0.953092,1.68545 1.296578,2.8855 0.369575,1.2106 0.557711,2.70917 0.562007,4.50492 0.004,1.65645 -0.157528,3.2504 -0.487158,4.77938 -0.309319,1.5036 -0.753516,2.83235 -1.333588,3.98113 -0.584728,1.158 -1.281379,2.08678 -2.089315,2.78184 -0.811202,0.65465 -1.69375,0.98307 -2.644906,0.98307 H 67.267361 Z m 3.31311,31.48983 h 6.222855 c 0.711183,0 1.275243,-0.33097 1.690727,-0.99062 0.437869,-0.69752 0.666615,-1.6561 0.687718,-2.8704 l 0.03546,-2.04045 c 0.02062,-1.18644 -0.171048,-2.08922 -0.573498,-2.71378 -0.376883,-0.66051 -0.908221,-0.98957 -1.595366,-0.98957 l -6.012528,0 z m 0.787647,-16.61338 5.055525,0 c 0.669606,0 1.201629,-0.31174 1.594693,-0.93306 0.391241,-0.61844 0.597297,-1.46862 0.619393,-2.5461 l 0.03281,-1.59989 c 0.02165,-1.05587 -0.146297,-1.87705 -0.502503,-2.46788 -0.354593,-0.58817 -0.855545,-0.88126 -1.504059,-0.88126 l -4.896275,0 z m 30.67959,24.79499 -2.41101,-10.52311 h -8.217018 l -1.554096,10.52311 -5.633775,0 7.248083,-39.67144 5.944326,0 10.4036,39.67144 z m -7.373956,-32.70552 h -0.162452 l -2.057029,14.51368 h 5.489047 z m 14.535556,32.70552 -3.41359,-39.67144 h 4.80605 l 3.26291,31.05558 9.44428,0 1.19202,8.61586 z"
           id="text2-8"
           style="font-weight:bold;font-size:46.148px;line-height:0.8;font-family:'IBM Plex Sans';-inkscape-font-specification:'IBM Plex Sans Bold';letter-spacing:-2.73363px;fill:#ffffff;stroke-width:3.11838;stroke-linecap:square;stroke-dasharray:none"
           transform="scale(1.211232,0.82560565)"
           aria-label="TBAL"
           inkscape:original-d="m 51.401733,190.73453 v 25.98132 h -7.014496 v -25.98132 h -8.721971 v -6.22998 h 24.458439 v 6.22998 z m 10.787718,-6.22998 h 15.644171 q 4.014876,0 6.22998,2.26125 2.261252,2.26125 2.261252,5.99924 0,1.84592 -0.507628,3.13806 -0.46148,1.29215 -1.292144,2.12281 -0.784516,0.83067 -1.892068,1.246 -1.061404,0.36918 -2.3074,0.41533 v 0.27689 q 1.1537,0 2.399696,0.41533 1.292144,0.41533 2.353548,1.33829 1.061404,0.87681 1.753624,2.3074 0.738368,1.43059 0.738368,3.50725 0,1.89207 -0.646072,3.59954 -0.599924,1.66133 -1.707476,2.90733 -1.107552,1.24599 -2.630436,1.98436 -1.522884,0.69222 -3.322656,0.69222 H 62.189451 Z m 7.014496,26.30436 h 8.0759 q 1.384439,0 2.168955,-0.73837 0.830664,-0.78452 0.830664,-2.16896 v -1.56903 q 0,-1.38444 -0.830664,-2.12281 -0.784516,-0.78451 -2.168955,-0.78451 h -8.0759 z m 0,-13.10603 h 6.968348 q 1.38444,0 2.168955,-0.78452 0.784516,-0.78452 0.784516,-2.16896 v -1.38444 q 0,-1.38444 -0.784516,-2.16895 -0.784515,-0.78452 -2.168955,-0.78452 h -6.968348 z m 40.184033,19.01297 -2.3074,-7.66057 H 96.328092 l -2.3074,7.66057 H 86.9139 l 10.61404,-32.2113 h 8.67582 l 10.4756,32.2113 z m -7.61442,-25.84288 h -0.23074 l -3.5534,12.22922 h 7.38368 z m 16.6485,25.84288 v -32.2113 h 7.0145 v 25.98132 h 12.27536 v 6.22998 z" />
      </g>
    </g>
  </g>
</svg>
