<svg
  xmlns="http://www.w3.org/2000/svg"
  id="Layer_1"
  data-name="Layer 1"
  viewBox="0 0 1024 1024"
><defs><style
    >.cls-2{fill:#f5f9fb}.cls-3{fill:#fcfaf4}.cls-4{fill:#d00e1a}</style></defs><path
    fill="#033771"
    d="M111 358c198.5-176.7 545.6-182.4 762-33.4C925 360.4 984.5 424 987 491c0 1.9-.7 4.9 1 6 1 64.2-20.9 110.8-60.4 154C849 737 705.8 790 591 801c-1.6 0-4.2-.6-5 1h-4c-1.9 0-5-.7-6 1h-5c-1.9 0-5-.7-6 1h-6c-3.5 0-8.4-.8-11 1h-70c-2-1.8-6.2-1-9-1h-9c-.8-1.6-3.4-1-5-1h-5c-1-1.7-4.1-1-6-1h-5c-.8-1.6-3.4-1-5-1h-4l-4-1C284 782.9 66.4 697 40.3 536.2 31.4 481.7 51.3 417.8 91 380c3-3 3.1-3.4 5-6 1.3-1.8 2.7-3.3 4-5 .2 5.8 4-4.5 4.2-4.8 1.4-1.1 6.5-.5 6.8-6.2Zm48 22c.6.6 14 0 16.5 0 .3 0 1 1.3 2.5.6 1.9-1 8.5-8.9 11-11.1 65.5-58.6 148.2-91.1 234.4-105.6l14.5 35.5 5.1.6 2-39c19.6-1.3 39.2-3.8 58.9-3.9 2 4.4 6.6 40.6 8.7 41 1.6.2 3.7-.3 5.4-.1l5-41 58 4 2 38 4-.7 16.1-31.7 2.4-1.6a492.3 492.3 0 0 1 89.3 22.7c49.8 17.7 100.4 43.9 140.7 78.3 2 1.8 10.7 11.2 12.4 11.5.8.1 1.4-.5 1.6-.5h15c.4 0 1.7 2.6 1.5-.5C707 219 404.4 204.6 221.5 327c-15.8 10.5-50.1 35.7-61 50-.5.6-2.4 2.2-1.5 3Zm689 195c3.8-43.4 1.3-87 2-130.6-3-13.8 1.2-31.1-2.2-44.7-1.1-4.3-19.4-22.1-23.8-26.2-48.7-45.2-136.6-85.1-202.6-93.4-1.7-.2-8.1-.5-9.2.1-1.2.7-10.5 20.4-12.8 23.7-3 4.3-6.6 6.9-12 7-2.4 0-12.7-.9-13.2-2.5l-3.7-33.4c-1.1-1.7-36.8-4.2-38.4-2.9s-1.8 14.6-2.2 17.3c-.3 2.2-1.5 4-1.8 6.2-.5 3-.2 12-2.3 14.2-1.8 1.7-18.1-.7-21.8.2l-10-37.5c-13.5-2-26.7 1-40 1.5l-2 38h-22.5c-2.2 0-12.2-27-14-31-1.4-1.7-6.6-1.1-9-.9-61.9 6.5-134.5 40.3-183.7 78-6.3 4.7-34.5 28.6-36.3 34-.5 1.5-1 9.3-.5 9.9 1 1.2 8.7-8.2 10.2-8.3A34 34 0 0 1 229 391a58.8 58.8 0 0 0-27.5 17c-13 14.4-14 35.8-14.6 54.5-1 28.7-3.9 102.8 8 126.2a47.2 47.2 0 0 0 62 20.3c-.5 1.8-1.9 2.2-3.4 3-28.5 15.9-48.8 11.3-65-17-11-19.5-11.8-42.2-13.5-64-4 .6-19.5-3.4-20.9.6-.3 15.7 0 31.3 0 47 0 2.2-1.1 4-1 6.6.5 4.8 12 21 15.5 25.7 37.3 51.6 105 94.6 164.2 116.7C491.5 786.7 695.3 765 822.5 648c2.3-2 30.4-29.6 28.5-31-12.3 1.5-37.4 3.6-42-11.5-.8-2.5 3.5-1.5 5-1.5 5.3-.2 36.7 2.3 38 1-1.6-10-2.4-20.1-4-30Zm50-180-37 1 .1 207.4c.2.5.4.9.8 1.2 2.2 1.4 44.8.2 51.6.4 3.4 0 22.3 2.3 23.5 1l1-41-39-1-1-169Zm-719 2-74 1-3 209h38v-87h34v-40c-1-.4-2.2 1-2.5 1H141v-44h38v-40Zm-1 75c-1.6-6.7.1-16.4-1-22.5-.2-1-1.8-3.5-2.5-3.5H154c1.6 5-2 20-.9 23.4.3.8.7 1.2 1.5 1.5l7.9 1H178Zm696 151c-8.5-4.7-12.3 4.7-17 9.5-156.9 160.4-438.8 178.7-623 55a315.5 315.5 0 0 1-86.5-83.5c-.8 2.2-.6 15-1.5 16-.7.7-7.1-1.4-6 1.5.5 1.4 11.2 14.6 13 16.7 84.5 98.3 249.5 145.4 375.5 141.8 119-3.3 275.8-54 351.5-150 .7-.8 1.9-1.4 3-3 3.9-5.5 1.3-4.1-5-4-1.3 0-2.8-.2-4 0Z"
  /><path
    d="M533 805h-40 40ZM111 358c-.3 5.7-5.4 5-6.8 6.2-.3.3-4 10.6-4.2 4.8 4.7-6.2 5.8-6.4 11-11ZM91 380c-.6-3.5 2.6-4.3 5-6-1.9 2.6-2 3-5 6ZM559 804c-2.6 1.8-7.5 1-11 1 2.6-1.9 7.5-1 11-1ZM478 805c-2.8 0-7 .8-9-1 2.8 0 7-.8 9 1ZM988 497c-1.7-1.1-1-4.1-1-6 1.7 1 1 4.1 1 6ZM450 803c-1.9-.1-4.9.8-6-1 1.9 0 5-.7 6 1ZM582 802c-1 1.7-4.1 1-6 1 1-1.7 4.1-1 6-1ZM571 803c-1 1.7-4.1 1-6 1 1-1.7 4.1-1 6-1ZM439 802c-2.3-.1-4.2-1-5-1 1.6 0 4.2-.6 5 1ZM591 801c-.8 0-2.8.8-5 1 .8-1.6 3.4-1 5-1ZM460 804c-2.3-.1-4.5-1-5-1 1.6 0 4.2-.6 5 1ZM430 801c-1.8-.2-3.6-1-4-1l4 1Z"
    class="cls-2"
  /><path
    d="M229 391a34 34 0 0 0-32.8 2.8c-1.5 0-9.2 9.4-10.2 8.2-.5-.6 0-8.3.5-10 1.8-5.3 30-29.2 36.3-34 49.2-37.6 121.8-71.3 183.8-77.9 2.3-.2 7.5-.8 8.9 1 1.8 4 11.8 31 14 31H452l2-38c13.3-.6 26.6-3.7 40-1.6l10 37.5c3.7-1 20 1.6 21.8-.2 2.1-2.2 1.8-11.3 2.3-14.2.3-2.2 1.5-4 1.8-6.2.4-2.7.6-15.9 2.2-17.3s37.3 1.2 38.4 2.9l3.7 33.4c.5 1.6 10.8 2.6 13.2 2.5 5.4-.1 9-2.7 12-7 2.3-3.2 11.7-23 12.8-23.7 1-.6 7.5-.3 9.2-.1 66 8.3 154 48.3 202.6 93.4 4.4 4 22.7 21.9 23.8 26.3 3.4 13.5-.8 30.8 2.3 44.7-.8 43.5 1.7 87.2-2 130.5-.3-1.4-1.5-3.7-1.8-5.8C837 510.5 827 452 819 393l-47.4-.9-32.6 211h37.5c.7 0 1.4-1.8 1.5-2.6 1.7-9.3 1.7-20 3-29.5 9.8-.6 19.3 1.7 29 1l4 32c-1.5 0-5.7-1-5 1.5 4.7 15.1 29.7 13 42 11.5 2 1.4-26.2 29-28.4 31-127.3 116.9-331 138.8-489.7 79.7-59.3-22.1-127-65.2-164.3-116.8-3.5-4.8-15-21-15.4-25.7-.2-2.5.9-4.3.9-6.6 0-15.7-.2-31.3 0-47 1.4-4 17 0 21-.6 1.7 21.9 2.5 44.5 13.5 64 16.1 28.3 36.5 32.9 65 17 1.5-.8 2.8-1.2 3.4-3 28.6-13.2 31.1-49 32-76.4 1-25.3 3.4-89.8-4-111.1a48.4 48.4 0 0 0-56-30.5Zm118.8-3.7c-38.9 3.8-45.4 39.7-46.8 72.2-1.3 27.1-1.6 62 0 89 2 36.5 17.2 64.4 58.4 57.4 31.6-5.4 40-33 41.6-61.4s2.1-61.5 1-89c-1.4-37.6-7.4-72.8-54.2-68.2ZM632 387l-85 1v41h24l1 173h37l-1-174h24v-41Zm-173 3h-43.5l-.5 212h31l-1-124 29 124 30-123 1 125h31.5l.5-215-42.9-.9L477 484l-2-1.5-16-92.5Zm240.5 1H642l1.5 212c31.2-4.4 79.7 9.7 91-31 5.8-21 6.6-54.7-7.5-72.5-1.6-2-7-5.6-7-6 0-1.4 8-7.7 10-11 11-17.9 9.1-61.6-5.5-77.5a59 59 0 0 0-25-14Z"
    class="cls-4"
  /><path
    d="M257 609a47.2 47.2 0 0 1-62.2-20.3c-11.8-23.4-8.8-97.5-7.9-126.2.7-18.7 1.6-40 14.6-54.5 6.3-7 18.1-15.2 27.5-17 23.7-4.7 48 7.3 56 30.5 7.4 21.3 5 85.8 4 111-1 27.5-3.5 63.3-32 76.5Zm-12.6-39.5c5.7-4.8 7-10.6 7.6-18 2.9-34.6-2.1-73 0-108-.5-4.7-3.7-12.1-8.7-13.3-15-3.4-18.4 10.7-19.3 22.3-2.6 34.6 2 72.1 0 107 1.6 11 10.6 18.2 20.4 10ZM814 604l-4-32c-9.8.7-19.3-1.6-29-1-1.4 9.4-1.3 20.2-3 29.5-.2.8-.8 2.5-1.5 2.5H739l32.6-210.9 47.4.9c8 58.9 17.8 117.5 27.3 176.2.3 2.1 1.5 4.4 1.7 5.8 1.6 10 2.4 20 4 30-1.3 1.4-32.7-1.2-38-1Zm-27.5-70c4.3 1.2 13.6-.9 18.5 0l-10.5-86-9.3 83.7c-.3.9.7 2.1 1.3 2.3Z"
    class="cls-3"
  /><path
    d="M159 380c-1-.8 1-2.4 1.5-3 10.9-14.2 45.2-39.5 61-50C404.4 204.7 707 218.9 866 376.5c.3 3-1 .5-1.5.5h-15c-.2 0-.8.7-1.6.5-1.7-.3-10.3-9.7-12.4-11.5-40.3-34.4-90.9-60.6-140.7-78.3a492 492 0 0 0-89.3-22.7l-2.4 1.6-16 31.7-4 .7-2-38-58-4-5 41c-1.8-.2-4 .3-5.5 0-2-.3-6.7-36.5-8.7-40.9-19.7.1-39.3 2.6-58.9 3.9l-2 39-5-.6-14.6-35.5c-86.2 14.5-169 47-234.4 105.6-2.5 2.2-9 10.2-11 11-1.5.7-2.1-.5-2.5-.5-2.4 0-15.9.6-16.5 0ZM880 630c-75.7 96-232.5 146.7-351.5 150-126 3.6-291-43.5-375.5-141.8a265 265 0 0 1-13-16.7c-1.1-2.9 5.3-.8 6-1.5.9-1 .6-13.8 1.5-16a315.5 315.5 0 0 0 86.6 83.4C418 811.2 700 793 857 632.5c4.6-4.8 8.4-14.2 16.9-9.5-9.9 1.3 2 6.8 6 7Z"
    class="cls-2"
  /><path
    d="M179 397v40h-38v44h30.5c.3 0 1.4-1.4 2.5-1v40h-34v87h-38l3-209 74-1ZM898 395l1 169 39 1-1 41c-1.2 1.2-20.1-1-23.5-1-6.8-.2-49.4 1-51.6-.4a2 2 0 0 1-.8-1.2V396l37-1Z"
    class="cls-3"
  /><path
    d="M178 472h-15.5l-7.9-1.1c-.8-.3-1.2-.7-1.5-1.5-1.1-3.5 2.6-18.3 1-23.4h20.4c.8 0 2.3 2.4 2.5 3.5 1.1 6.1-.6 15.8 1 22.5Z"
    class="cls-4"
  /><path
    d="M878 623c6.3-.1 8.9-1.6 5 4 .6-4.2-.8-2.7-4.3-3.2l-.7-.8Z"
    class="cls-2"
  /><path
    d="m459 390 16 92.5 2 1.5 17.1-95.9 42.9.9-.5 215H505l-1-125-30 123-29-124 1 124h-31l.5-212H459zM699.5 391a59 59 0 0 1 25 14c14.6 15.9 16.5 59.6 5.5 77.5-2 3.4-10 9.6-10 11 0 .5 5.4 4 7 6 14 17.8 13.3 51.6 7.5 72.5-11.3 40.7-59.8 26.6-91 31L642 391h57.5ZM678 426v45.5c0 3 11.8 1.2 14.5-.5 8.6-5.3 8.2-32.4 3-40-4-5.8-11.2-5.2-17.5-5Zm1 137c9.2.2 21.2 1.5 23.6-10 1.2-5.7 1-23-.7-28.5-3.4-11.7-13.7-10.9-24-10.5l1 49ZM347.8 387.3c46.8-4.6 52.8 30.6 54.2 68.2 1.1 27.5.6 61.5-1 89s-10 56-41.6 61.4c-41.3 7-56.4-20.9-58.5-57.3-1.5-27-1.2-62 0-89.1 1.5-32.5 8-68.4 46.9-72.2Zm4 38.9c-17.6 2-12.4 34.8-12.8 47.3-.5 20.3-.9 40.6-1 61 0 7-1.4 13.2.1 21 1.2 6.1 3.8 10 10.4 10.5 11.5.9 15.7-8.4 16.5-18.5 2.7-34-2-71.6 0-106-.8-7.7-3.9-16.4-13.2-15.3ZM632 387v41h-24l1 174h-37l-1-173h-24v-41l85-1z"
    class="cls-3"
  /><path
    d="M244.4 569.5c-9.8 8.2-18.8 1-20.4-10 2-34.9-2.6-72.4 0-107 .9-11.6 4.4-25.7 19.3-22.3 5 1.2 8.2 8.6 8.7 13.3-2.1 35 2.9 73.4 0 108-.6 7.4-1.9 13.2-7.5 18ZM786.5 534c-.6-.1-1.6-1.4-1.3-2.3l9.3-83.7 10.5 86c-5-.9-14.2 1.2-18.5 0ZM679 563l-1-49c10.2-.4 20.5-1.2 24 10.6 1.6 5.5 1.8 22.7.6 28.5-2.5 11.4-14.4 10-23.6 10ZM678 426c6.3-.2 13.4-.8 17.5 5 5.2 7.6 5.6 34.7-3 40-2.7 1.7-14.5 3.5-14.5.5V426ZM351.8 426.2c9.3-1 12.4 7.6 13.2 15.3-2 34.4 2.7 72 0 106-.7 10.1-5 19.4-16.5 18.6-6.6-.5-9.2-4.5-10.4-10.7-1.5-7.7 0-13.8 0-20.9 0-20.4.4-40.7 1-61 .3-12.5-5-45.3 12.7-47.3Z"
    class="cls-4"
  /></svg>
