<svg
  xmlns="http://www.w3.org/2000/svg"
  xml:space="preserve"
  viewBox="0 0 133.6 47.9"
><path
    d="M54.9 28.8c-.1-.2-.4-.3-.7-.3-.3 0-1.2-.5-2-1a11 11 0 0 1-4.1-6.3l-.4-1.5a27.4 27.4 0 0 1 .4-9.3c0-.6.1-.9 1.1-3 .7-1.3 2.5-3.3 3.7-4.2 3.3-2.2 7.2-3 9.4-1.8l1.5 1c.2.4.7.7 1.3.7 2.3.3 4.6 2.4 5.6 5 .3 1 .4 1.9.2 4.6-.3 3.2-.3 3.3-1.5 5.7A21 21 0 0 1 68 21l-1.3 1.5a18.1 18.1 0 0 1-5.8 5.4l-.6.3-1.8.3c-2.3.4-3.5.5-3.6.3zm2.8-4.8 2.6-1.6a22.1 22.1 0 0 0 4.5-5c1.4-1.7 2.6-6.2 1.9-7.2l-.1-.5c0-.1 0-.5-.3-1s-.6-.8-1.3-.9l-1.2.1-2.3 1c-1.7.8-2.1 1.1-2.9 2.2l-1 1.6c0 .3-2.1-.5-2.3-1l-.2-1.5c0-.7-.2-1.4-.3-1.4-.1-.1-.2 0-.2 0l-1 2a12.2 12.2 0 0 0-1 8.1c.1 1.2.5 2.5.6 2.9.4.9 1.6 2.1 2.3 2.3.8.3 1 .3 2.2-.1zM8.4 42.2c-1-.4-2-1-2.4-1.4l-1-.6a16 16 0 0 1-3.5-3.8l-.3-.6c-.5-.3-1-2.4-1.2-4 0-1 0-1.3.7-1.8 1-1 2.3-.8 3.1.3.4.5.7 1.2.8 1.6.2 2 2 4.6 4.1 5.8 1.8 1 3.3 1.1 5.4.2 1.4-.6 1.8-.9 2.3-1.9.7-1.3 1.8-5.3 2.2-7.8 1-6.3 1-7.9 0-6.4-.1.3-1 .9-2 1.4-1.6.8-1.8.8-4 .7-2.6-.2-5-1-6-2.1-.3-.4-.6-.6-.8-.6-.3 0-1.5-1.5-1.9-2.2L3 17.2a10 10 0 0 1-.8-5.2l.4-1.7c.2-1.2.5-1.7 1.7-3.2 1.2-1.3 5.1-4.7 5.4-4.5.2 0 .7-.2 1.1-.5.9-.5 1.6-.7 5.5-1h2.5c1.4 0 1.7 0 2-.6.3-.6.8-.7 1.1-.2 0 .1.4.3.8.3.9 0 1.7 1.4 2.3 3.7.5 2 .5 2-.3 12.5a57.3 57.3 0 0 1-3.3 20.5c-.7 1.7-2 3.7-2.6 3.6l-1 .6c-3 1.9-6.1 2.1-9.4.7zm5-22.9c.2-.1.7-.3 1.1-.3 1 0 2.8-1.8 3.1-3l.5-.9.9-2c.8-2 1.4-6.4 1-6.7-.9-.6-6.6-.4-6.6.2l-1 .4c-1 .3-3.8 2.6-4.6 3.8-1.2 1.8-1.3 2.5-.7 4 .6 1.7 1.7 3 3.1 3.8 1.7.9 2.8 1.1 3.2.7zM122.6 27s-.8-.5-1.7-.8c-1-.4-1.7-.8-1.8-1a4 4 0 0 0-1-.7 8 8 0 0 1-1.4-1 20 20 0 0 1-3.4-3.8c-.9-1.5-1.6-4.3-1.6-5.7.1-1.5 1.1-4.5 2-5.7a21.1 21.1 0 0 1 10.2-6.9c3-1 6.5 0 7.7 2.4 1.4 2.6 0 6.7-3.3 10.1a17.2 17.2 0 0 1-5.1 4c-1.4.7-4 1-4.8.8-1-.5 2 2.3 3.5 3a9 9 0 0 0 5.1 1.5c2.2.1 3.3-.3 3.6-1.4.2-1 .5-1.1 1.4-.8.6.2 1 .5 1.2 1.4.5 1.3.5 2.8 0 3.4-.2.2-1.2.8-2.3 1.2l-2 .8-3.1-.3c-1.8-.2-3.3-.4-3.2-.5zm-1.4-13.7a1 1 0 0 1 .5-.2h.5c.4-.1 2.6-2 3.7-3.1 2-2.4 2.6-4 1.6-4a17.7 17.7 0 0 0-10 5c0 .6 1 2 1.6 2.1 1 .3 2 .3 2.1.2zm-25.8 34c-1.5-.7-2.7-1.4-4.8-3a17 17 0 0 0-1.9-1.2c-.2 0-.4-.2-.4-.4l-.4-.4c-.5-.1-1.4-.8-1.6-1l-.8-.7c-.4-.3-1-1-1.4-1.7-.6-1-.7-1.3-.6-2.7 0-1.4.2-1.6 1-2.3.7-.6 1-.7 1.7-.5a5 5 0 0 1 1.6.7c.5.4.6.6.4 1.3l-.4 1.2a12 12 0 0 0 3 2.8c4.5 3.3 5 3.6 7 3.7.9 0 1.7-.1 1.9-.3l.9-.4c1.6-.3 2.7-2.3 3.9-7.1.4-1.8 1-10.7.8-10.7-.1 0-1 .5-1.8 1.2-2 1.7-3.4 2.2-5.8 2-2.3-.1-3.3-.6-4.9-2.4-1.8-2-2.6-4.5-2.6-7.7a24.8 24.8 0 0 1 1.9-8c.2-.6.1-.7-.2-.4-.4.2-.6.2-1.2-.4-1-.7-1.3-1.6-1-2.8.2-.7.2-1-.2-1a21 21 0 0 0-9 3.7c-1 .5-1.5.9-1.7 1.4a93.3 93.3 0 0 0-1 12.7 9 9 0 0 1 0 4c0 .1-.6.5-1.2.7-1 .4-1.2.4-1.8.1a2.6 2.6 0 0 1-1.5-2.3c0-.4 0-.7-.2-.8 0-.1-.2-.5-.1-1v-5.4l.7-9.6c0-.7.3-2.4.6-3.8.4-2 .6-2.7 1-3 .8-.6 2.2-.4 3 .4.6.8 1 .8 2.1.2 1.6-.8 7.3-2.1 8.7-2 2.3.1 5 2.2 5.3 4.3l.2 1.1 1.1-1c.6-.5 1.2-1 1.4-1l.7-.4c.3-.3 1-.6 1.6-.7a6 6 0 0 0 1.4-.5c.3-.1 3 0 6.6.6 1.2.1 3.1 2 3.3 3.3.3 1.5.1 6.7-.4 10.9l-.8 10.4a140 140 0 0 1-.7 9l-.6 2.4c-1.2 6-4.6 9.2-9.5 9-1.3 0-2.3-.1-3.3-.6zm3.8-24.6c1.8-.5 4-2.6 5.6-5.2l1-1.8v-8c-.2-.7-4.1-.6-5.3.1-1.4.9-3.3 2.5-3.3 3l-.3.6c-.7.7-1.6 3.5-2 6-.2 2.5-.2 2.6.4 4 .4.8.9 1.4 1.3 1.5.7.3.7.3 2.6-.2zM36 29.4c-1.3-.2-2.3-.6-4.5-2-2.2-1.2-2.8-1.8-3.9-4.5-.8-2-.9-2.4-.8-4.8 0-1.4 0-2.8-.2-3-.2-.4-.3-1.6-.2-2.9.1-.5.4-.9 1.3-1.3.8-.4 1.5-1.1 2.7-2.8.8-1.2 1.7-2.3 2-2.4l.3-.5c.1-.6 2.6-2.2 4.7-3l3-1.2c.7-.3.9-.3 1.5.2C44.4 3 45.3 3.9 46 5.3c.9 1.6 1 1.8.6 3.2a22 22 0 0 1-1 3.4c-.6 1.5-1 2-2.4 3.2-1 .8-2.4 1.7-3.3 2l-2.3 1c-.4 0-1.8.1-3.2 0L32 18l-.2 1c-.2 1.4.7 3 2.4 4.4 1.3 1 1.4 1 3.5 1 1.9 0 2.3-.1 3-.8.9-.6 1.3-.7 2.4-.7 1.2.1 1.4.3 2.4 1.4 1.4 1.7 1.3 2.5-.7 3.6-2.3 1.3-6.3 2-8.9 1.5zM37 12.5a7 7 0 0 0 4.2-3.3c.8-1.4.8-2.4 0-2.5-1.8-.1-4.6 1.5-5.5 3.2l-1 1.2c-.5.3-.7 1.2-.4 1.5.2.3 1.5.3 2.7 0z"
  /></svg>
